 <svg
      width="151"
      height="85"
      viewBox="0 0 151 85"
      fill="none"
      xmlns="http://www.w3.org/2000/svg"
    >
      <path
        d="M10.9773 56.5889V71.5207H2.64205V36.6116H10.7045V50.1457H10.9943C11.5852 48.5321 12.5511 47.2707 13.892 46.3616C15.2443 45.4525 16.8977 44.998 18.8523 44.998C20.6932 44.998 22.2955 45.4071 23.6591 46.2252C25.0227 47.0321 26.0795 48.1741 26.8295 49.6514C27.5909 51.1286 27.9659 52.8559 27.9545 54.8332V71.5207H19.6193V56.4696C19.6307 55.015 19.267 53.8786 18.5284 53.0605C17.7898 52.2423 16.75 51.8332 15.4091 51.8332C14.5341 51.8332 13.7614 52.0264 13.0909 52.4127C12.4318 52.7877 11.9148 53.3275 11.5398 54.0321C11.1761 54.7366 10.9886 55.5889 10.9773 56.5889ZM40.5384 71.9639C38.8679 71.9639 37.3849 71.6855 36.0895 71.1286C34.8054 70.5605 33.7884 69.7082 33.0384 68.5718C32.2997 67.4241 31.9304 65.9866 31.9304 64.2593C31.9304 62.8048 32.1861 61.5775 32.6974 60.5775C33.2088 59.5775 33.9134 58.765 34.8111 58.14C35.7088 57.515 36.7429 57.0434 37.9134 56.7252C39.0838 56.3957 40.3338 56.1741 41.6634 56.0605C43.152 55.9241 44.3509 55.7821 45.2599 55.6343C46.169 55.4752 46.8281 55.2536 47.2372 54.9696C47.6577 54.6741 47.8679 54.2593 47.8679 53.7252V53.64C47.8679 52.765 47.5668 52.0889 46.9645 51.6116C46.3622 51.1343 45.5497 50.8957 44.527 50.8957C43.4247 50.8957 42.5384 51.1343 41.8679 51.6116C41.1974 52.0889 40.7713 52.748 40.5895 53.5889L32.902 53.3161C33.1293 51.7252 33.7145 50.3048 34.6577 49.0548C35.6122 47.7934 36.919 46.8048 38.5781 46.0889C40.2486 45.3616 42.2543 44.998 44.5952 44.998C46.2656 44.998 47.8054 45.1968 49.2145 45.5946C50.6236 45.9809 51.8509 46.5491 52.8963 47.2991C53.9418 48.0377 54.7486 48.9468 55.3168 50.0264C55.8963 51.1059 56.1861 52.3389 56.1861 53.7252V71.5207H48.3452V67.873H48.1406C47.6747 68.7593 47.0781 69.5093 46.3509 70.123C45.6349 70.7366 44.7884 71.1968 43.8111 71.5036C42.8452 71.8105 41.7543 71.9639 40.5384 71.9639ZM43.1122 66.5093C44.0099 66.5093 44.8168 66.3275 45.5327 65.9639C46.2599 65.6002 46.8395 65.1002 47.2713 64.4639C47.7031 63.8161 47.919 63.0661 47.919 62.2139V59.7252C47.6804 59.8502 47.3906 59.9639 47.0497 60.0661C46.7202 60.1684 46.3565 60.265 45.9588 60.3559C45.5611 60.4468 45.152 60.5264 44.7315 60.5946C44.3111 60.6627 43.9077 60.7252 43.5213 60.7821C42.7372 60.9071 42.0668 61.1002 41.5099 61.3616C40.9645 61.623 40.544 61.9639 40.2486 62.3843C39.9645 62.7934 39.8224 63.2821 39.8224 63.8502C39.8224 64.7139 40.1293 65.373 40.7429 65.8275C41.3679 66.2821 42.1577 66.5093 43.1122 66.5093ZM61.2827 71.5207V36.6116H69.6179V49.8218H69.7884C70.1293 49.0264 70.6122 48.2593 71.2372 47.5207C71.8736 46.7821 72.6804 46.1798 73.6577 45.7139C74.6463 45.2366 75.8281 44.998 77.2031 44.998C79.0213 44.998 80.7202 45.4752 82.2997 46.4298C83.8906 47.3843 85.1747 48.8559 86.152 50.8446C87.1293 52.8332 87.6179 55.3673 87.6179 58.4468C87.6179 61.4127 87.1463 63.8957 86.2031 65.8957C85.2713 67.8957 84.0099 69.3957 82.419 70.3957C80.8395 71.3957 79.0838 71.8957 77.152 71.8957C75.8338 71.8957 74.6918 71.6798 73.7259 71.248C72.7599 70.8161 71.9474 70.248 71.2884 69.5434C70.6406 68.8389 70.1406 68.0832 69.7884 67.2764H69.5327V71.5207H61.2827ZM69.4474 58.4298C69.4474 59.8389 69.6349 61.0661 70.0099 62.1116C70.3963 63.1571 70.9474 63.9696 71.6634 64.5491C72.3906 65.1173 73.2599 65.4014 74.2713 65.4014C75.294 65.4014 76.1634 65.1173 76.8793 64.5491C77.5952 63.9696 78.1349 63.1571 78.4986 62.1116C78.8736 61.0661 79.0611 59.8389 79.0611 58.4298C79.0611 57.0207 78.8736 55.7991 78.4986 54.765C78.1349 53.7309 77.5952 52.9298 76.8793 52.3616C76.1747 51.7934 75.3054 51.5093 74.2713 51.5093C73.2486 51.5093 72.3793 51.7877 71.6634 52.3446C70.9474 52.9014 70.3963 53.6968 70.0099 54.7309C69.6349 55.765 69.4474 56.998 69.4474 58.4298ZM91.9858 71.5207V45.3389H100.321V71.5207H91.9858ZM96.1619 42.2877C94.9915 42.2877 93.9858 41.9014 93.1449 41.1286C92.304 40.3446 91.8835 39.4014 91.8835 38.2991C91.8835 37.2082 92.304 36.2764 93.1449 35.5036C93.9858 34.7196 94.9915 34.3275 96.1619 34.3275C97.3438 34.3275 98.3494 34.7196 99.179 35.5036C100.02 36.2764 100.44 37.2082 100.44 38.2991C100.44 39.4014 100.02 40.3446 99.179 41.1286C98.3494 41.9014 97.3438 42.2877 96.1619 42.2877ZM120.405 45.3389V51.4752H103.888V45.3389H120.405ZM107.348 39.0661H115.683V63.2877C115.683 63.7991 115.763 64.2139 115.922 64.5321C116.092 64.8389 116.337 65.0605 116.655 65.1968C116.973 65.3218 117.354 65.3843 117.797 65.3843C118.115 65.3843 118.45 65.3559 118.803 65.2991C119.166 65.2309 119.439 65.1741 119.621 65.1286L120.882 71.1457C120.484 71.2593 119.922 71.4014 119.195 71.5718C118.479 71.7423 117.621 71.8502 116.621 71.8957C114.666 71.9866 112.99 71.7593 111.592 71.2139C110.206 70.6571 109.143 69.7934 108.405 68.623C107.678 67.4525 107.325 65.9809 107.348 64.2082V39.0661ZM147.188 53.3332L139.534 53.5377C139.455 52.9923 139.239 52.5093 138.886 52.0889C138.534 51.6571 138.074 51.3218 137.506 51.0832C136.949 50.8332 136.301 50.7082 135.562 50.7082C134.597 50.7082 133.773 50.9014 133.091 51.2877C132.42 51.6741 132.091 52.1968 132.102 52.8559C132.091 53.3673 132.295 53.8105 132.716 54.1855C133.148 54.5605 133.915 54.8616 135.017 55.0889L140.062 56.0434C142.676 56.5434 144.619 57.373 145.892 58.5321C147.176 59.6911 147.824 61.2252 147.835 63.1343C147.824 64.9298 147.29 66.4923 146.233 67.8218C145.188 69.1514 143.756 70.1855 141.938 70.9241C140.119 71.6514 138.04 72.015 135.699 72.015C131.96 72.015 129.011 71.248 126.852 69.7139C124.705 68.1684 123.477 66.1002 123.17 63.5093L131.403 63.3048C131.585 64.2593 132.057 64.9866 132.818 65.4866C133.58 65.9866 134.551 66.2366 135.733 66.2366C136.801 66.2366 137.67 66.0377 138.341 65.64C139.011 65.2423 139.352 64.7139 139.364 64.0548C139.352 63.4639 139.091 62.9923 138.58 62.64C138.068 62.2764 137.267 61.9923 136.176 61.7877L131.608 60.9184C128.983 60.4411 127.028 59.5605 125.744 58.2764C124.46 56.9809 123.824 55.3332 123.835 53.3332C123.824 51.5832 124.29 50.0889 125.233 48.8502C126.176 47.6002 127.517 46.6457 129.256 45.9866C130.994 45.3275 133.045 44.998 135.409 44.998C138.955 44.998 141.75 45.7423 143.795 47.2309C145.841 48.7082 146.972 50.7423 147.188 53.3332Z"
        fill="white"
      />
      <rect
        x="0.5"
        y="1.02069"
        width="15"
        height="15"
        rx="3.5"
        fill="#18181B"
        stroke="#27272A"
      />
      <rect
        x="20.5"
        y="1.02069"
        width="15"
        height="15"
        rx="3.5"
        fill="#4C1D95"
        stroke="#6D28D9"
      />
      <rect
        x="40.5"
        y="1.02069"
        width="15"
        height="15"
        rx="3.5"
        fill="#5B21B6"
        stroke="#7C3AED"
      />
      <rect
        x="60.5"
        y="1.02069"
        width="15"
        height="15"
        rx="3.5"
        fill="#6D28D9"
        stroke="#8B5CF6"
      />
      <rect
        x="80.5"
        y="1.02069"
        width="15"
        height="15"
        rx="3.5"
        fill="#7C3AED"
        stroke="#A78BFA"
      />
      <rect
        x="100.5"
        y="1.02069"
        width="15"
        height="15"
        rx="3.5"
        fill="#8B5CF6"
        stroke="#C4B5FD"
      />
    </svg>